<svg width="20" height="20" viewBox="0 0 20 20" fill="none" xmlns="http://www.w3.org/2000/svg">
<g clip-path="url(#clip0_2624_3031)">
<path d="M7.375 3.625C7.375 1.96825 9.8935 0.625 13 0.625C16.1065 0.625 18.625 1.96825 18.625 3.625C18.625 5.28175 16.1065 6.625 13 6.625C9.8935 6.625 7.375 5.28175 7.375 3.625ZM13 8.125C12.2297 8.125 11.4993 8.03875 10.8317 7.88875C9.8125 7.1245 8.14225 6.625 6.25 6.625C3.1435 6.625 0.625 7.96825 0.625 9.625C0.625 11.2817 3.1435 12.625 6.25 12.625C9.3565 12.625 11.875 11.2817 11.875 9.625C11.875 9.60325 11.8698 9.58225 11.869 9.5605H11.875V11.125C11.875 12.7817 9.3565 14.125 6.25 14.125C3.1435 14.125 0.625 12.7817 0.625 11.125V12.625C0.625 14.2817 3.1435 15.625 6.25 15.625C9.3565 15.625 11.875 14.2817 11.875 12.625V14.125C11.875 15.7817 9.3565 17.125 6.25 17.125C3.1435 17.125 0.625 15.7817 0.625 14.125V15.625C0.625 17.2817 3.1435 18.625 6.25 18.625C9.3565 18.625 11.875 17.2817 11.875 15.625V15.565C12.2388 15.604 12.6145 15.625 13 15.625C16.1065 15.625 18.625 14.2817 18.625 12.625V11.125C18.625 12.7142 16.306 14.0117 13.375 14.1152V12.6153C16.306 12.5118 18.625 11.215 18.625 9.625V8.125C18.625 9.71425 16.306 11.0118 13.375 11.1153V9.61525C16.306 9.51175 18.625 8.215 18.625 6.625V5.125C18.625 6.78175 16.1065 8.125 13 8.125Z" fill="white"/>
</g>
<defs>
<clipPath id="clip0_2624_3031">
<rect width="18.75" height="18.75" fill="white" transform="translate(0.625 0.625)"/>
</clipPath>
</defs>
</svg>
