<svg width="19" height="19" viewBox="0 0 19 19" fill="none" xmlns="http://www.w3.org/2000/svg">
<path d="M7.375 3.125C7.375 1.46825 9.8935 0.125 13 0.125C16.1065 0.125 18.625 1.46825 18.625 3.125C18.625 4.78175 16.1065 6.125 13 6.125C9.8935 6.125 7.375 4.78175 7.375 3.125ZM13 7.625C12.2297 7.625 11.4993 7.53875 10.8317 7.38875C9.8125 6.6245 8.14225 6.125 6.25 6.125C3.1435 6.125 0.625 7.46825 0.625 9.125C0.625 10.7817 3.1435 12.125 6.25 12.125C9.3565 12.125 11.875 10.7817 11.875 9.125C11.875 9.10325 11.8698 9.08225 11.869 9.0605H11.875V10.625C11.875 12.2817 9.3565 13.625 6.25 13.625C3.1435 13.625 0.625 12.2817 0.625 10.625V12.125C0.625 13.7817 3.1435 15.125 6.25 15.125C9.3565 15.125 11.875 13.7817 11.875 12.125V13.625C11.875 15.2817 9.3565 16.625 6.25 16.625C3.1435 16.625 0.625 15.2817 0.625 13.625V15.125C0.625 16.7817 3.1435 18.125 6.25 18.125C9.3565 18.125 11.875 16.7817 11.875 15.125V15.065C12.2388 15.104 12.6145 15.125 13 15.125C16.1065 15.125 18.625 13.7817 18.625 12.125V10.625C18.625 12.2142 16.306 13.5117 13.375 13.6152V12.1153C16.306 12.0118 18.625 10.715 18.625 9.125V7.625C18.625 9.21425 16.306 10.5118 13.375 10.6153V9.11525C16.306 9.01175 18.625 7.715 18.625 6.125V4.625C18.625 6.28175 16.1065 7.625 13 7.625Z" fill="#FB9DFF"/>
</svg>
