<svg width="20" height="20" viewBox="0 0 20 20" fill="none" xmlns="http://www.w3.org/2000/svg">
<path d="M14.6875 10C12.1023 10 10 12.1023 10 14.6875C10 17.2727 12.1023 19.375 14.6875 19.375C17.2727 19.375 19.375 17.2727 19.375 14.6875C19.375 12.1023 17.2727 10 14.6875 10ZM14.6875 11.5625C15.5508 11.5625 16.25 12.2617 16.25 13.125C16.25 13.9883 15.5508 14.6875 14.6875 14.6875C13.8242 14.6875 13.125 13.9883 13.125 13.125C13.125 12.2617 13.8242 11.5625 14.6875 11.5625ZM17.0312 16.7523C16.4578 17.4023 15.6203 17.8125 14.6875 17.8125C13.7547 17.8125 12.9172 17.4016 12.3438 16.7523V16.6406C12.3438 15.9937 12.8687 15.4688 13.5156 15.4688H15.8594C16.5063 15.4688 17.0312 15.9937 17.0312 16.6406V16.7523ZM0.625 6.875V6.09375C0.625 3.93984 2.37734 2.1875 4.53125 2.1875H5.3125V1.40625C5.3125 0.975 5.6625 0.625 6.09375 0.625C6.525 0.625 6.875 0.975 6.875 1.40625V2.1875H13.125V1.40625C13.125 0.975 13.475 0.625 13.9062 0.625C14.3375 0.625 14.6875 0.975 14.6875 1.40625V2.1875H15.4688C17.6227 2.1875 19.375 3.93984 19.375 6.09375V6.875H0.625ZM10.5539 19.375H4.53125C2.37734 19.375 0.625 17.6227 0.625 15.4688V8.4375H14.6875C11.2359 8.4375 8.4375 11.2359 8.4375 14.6875C8.4375 16.5547 9.25625 18.2297 10.5539 19.375Z" fill="white"/>
</svg>
