<svg width="20" height="19" viewBox="0 0 20 19" fill="none" xmlns="http://www.w3.org/2000/svg">
<path d="M14.6875 9.5C12.1023 9.5 10 11.6023 10 14.1875C10 16.7727 12.1023 18.875 14.6875 18.875C17.2727 18.875 19.375 16.7727 19.375 14.1875C19.375 11.6023 17.2727 9.5 14.6875 9.5ZM14.6875 11.0625C15.5508 11.0625 16.25 11.7617 16.25 12.625C16.25 13.4883 15.5508 14.1875 14.6875 14.1875C13.8242 14.1875 13.125 13.4883 13.125 12.625C13.125 11.7617 13.8242 11.0625 14.6875 11.0625ZM17.0312 16.2523C16.4578 16.9023 15.6203 17.3125 14.6875 17.3125C13.7547 17.3125 12.9172 16.9016 12.3438 16.2523V16.1406C12.3438 15.4937 12.8687 14.9688 13.5156 14.9688H15.8594C16.5063 14.9688 17.0312 15.4937 17.0312 16.1406V16.2523ZM0.625 6.375V5.59375C0.625 3.43984 2.37734 1.6875 4.53125 1.6875H5.3125V0.90625C5.3125 0.475 5.6625 0.125 6.09375 0.125C6.525 0.125 6.875 0.475 6.875 0.90625V1.6875H13.125V0.90625C13.125 0.475 13.475 0.125 13.9062 0.125C14.3375 0.125 14.6875 0.475 14.6875 0.90625V1.6875H15.4688C17.6227 1.6875 19.375 3.43984 19.375 5.59375V6.375H0.625ZM10.5539 18.875H4.53125C2.37734 18.875 0.625 17.1227 0.625 14.9688V7.9375H14.6875C11.2359 7.9375 8.4375 10.7359 8.4375 14.1875C8.4375 16.0547 9.25625 17.7297 10.5539 18.875Z" fill="#FB9DFF"/>
</svg>
