<svg width="24" height="24" viewBox="0 0 24 24" fill="none" xmlns="http://www.w3.org/2000/svg">
<g clip-path="url(#clip0_755_1045)">
<path d="M9.3002 13.8C9.3002 14.2968 8.897 14.7 8.4002 14.7C7.9034 14.7 7.5002 14.2968 7.5002 13.8C7.5002 13.3032 7.9034 12.9 8.4002 12.9C8.897 12.9 9.3002 13.3032 9.3002 13.8ZM15.6002 12.9C15.1034 12.9 14.7002 13.3032 14.7002 13.8C14.7002 14.2968 15.1034 14.7 15.6002 14.7C16.097 14.7 16.5002 14.2968 16.5002 13.8C16.5002 13.3032 16.097 12.9 15.6002 12.9ZM7.2005 8.5143L7.7999 9.1866C7.8188 9.1695 9.7241 7.5 12.0002 7.5C14.2763 7.5 16.1816 9.1686 16.2005 9.1866L16.7999 8.5143C16.7126 8.436 14.6264 6.6 12.0002 6.6C9.374 6.6 7.2878 8.436 7.2005 8.5143ZM22.8002 12C22.8002 17.9553 17.9555 22.8 12.0002 22.8C6.0449 22.8 1.2002 17.9553 1.2002 12C1.2002 6.0447 6.0449 1.2 12.0002 1.2C17.9555 1.2 22.8002 6.0447 22.8002 12ZM21.9002 12C21.9002 6.5415 17.4587 2.1 12.0002 2.1C6.5417 2.1 2.1002 6.5415 2.1002 12C2.1002 17.4585 6.5417 21.9 12.0002 21.9C17.4587 21.9 21.9002 17.4585 21.9002 12Z" fill="white" stroke="white" stroke-width="0.5"/>
</g>
<defs>
<clipPath id="clip0_755_1045">
<rect width="24" height="24" fill="white"/>
</clipPath>
</defs>
</svg>
