<svg width="26" height="26" viewBox="0 0 26 26" fill="none" xmlns="http://www.w3.org/2000/svg">
<g clip-path="url(#clip0_1434_116529)">
<path d="M0.5 19.2501V5.70842C0.5 3.4105 2.36875 1.54175 4.66667 1.54175H6.75C7.23333 1.54175 7.71667 1.65529 8.14792 1.87091L11.4344 3.51466C11.5781 3.58654 11.7396 3.62404 11.9 3.62404H17.1667C20.0385 3.62404 22.375 5.9605 22.375 8.83237H10.9417C8.19375 8.83237 5.73021 10.672 4.94792 13.3147L2.16354 23.0428C1.14583 22.0918 0.5 20.749 0.5 19.2501ZM24.9719 11.9761C24.4729 11.3063 23.7125 10.922 22.8802 10.9084C22.8646 10.9084 22.8521 10.9167 22.8365 10.9167H10.9417C9.11042 10.9167 7.46771 12.1428 6.94792 13.898L4.0125 24.1511C4.54688 24.3365 5.11146 24.4584 5.70833 24.4584H18.7896C21.1083 24.4584 23.1125 22.9667 23.7917 20.7011L25.3875 14.3303C25.6312 13.5157 25.4792 12.6584 24.9719 11.9761Z" fill="#FB9DFF"/>
</g>
<defs>
<clipPath id="clip0_1434_116529">
<rect width="25" height="25" fill="white" transform="translate(0.5 0.5)"/>
</clipPath>
</defs>
</svg>
