<svg width="22" height="22" viewBox="0 0 22 22" fill="none" xmlns="http://www.w3.org/2000/svg">
<path d="M11.8325 10.3333C11.8325 10.7933 11.4592 11.1667 10.9992 11.1667C10.5392 11.1667 10.1658 10.7933 10.1658 10.3333C10.1658 9.87333 10.5392 9.5 10.9992 9.5C11.4592 9.5 11.8325 9.87333 11.8325 10.3333ZM15.1658 9.5C14.7058 9.5 14.3325 9.87333 14.3325 10.3333C14.3325 10.7933 14.7058 11.1667 15.1658 11.1667C15.6258 11.1667 15.9992 10.7933 15.9992 10.3333C15.9992 9.87333 15.6258 9.5 15.1658 9.5ZM6.8325 9.5C6.3725 9.5 5.99917 9.87333 5.99917 10.3333C5.99917 10.7933 6.3725 11.1667 6.8325 11.1667C7.2925 11.1667 7.66583 10.7933 7.66583 10.3333C7.66583 9.87333 7.2925 9.5 6.8325 9.5ZM20.9992 4.91667V15.75C20.9992 17.3583 19.6908 18.6667 18.0825 18.6667H15.1392L11.8183 21.4125C11.5892 21.6167 11.2967 21.7192 11.0033 21.7192C10.7067 21.7192 10.4067 21.6142 10.1692 21.4033L6.92083 18.6667H3.91667C2.30833 18.6667 1 17.3583 1 15.75V4.91667C0.999167 3.30833 2.3075 2 3.91583 2H18.0825C19.6908 2 20.9992 3.30833 20.9992 4.91667ZM20.1658 4.91667C20.1658 3.76833 19.2317 2.83333 18.0825 2.83333H3.91583C2.76667 2.83333 1.8325 3.76833 1.8325 4.91667V15.75C1.8325 16.8983 2.76667 17.8333 3.91583 17.8333H7.0725C7.17083 17.8333 7.26583 17.8683 7.34083 17.9317L10.7142 20.7733C10.88 20.9217 11.1183 20.92 11.2758 20.78L14.7242 17.9292C14.7992 17.8675 14.8925 17.8333 14.9892 17.8333H18.0825C19.2317 17.8333 20.1658 16.8983 20.1658 15.75V4.91667Z" fill="#F0E8FF" stroke="#F0E8FF" stroke-width="0.375"/>
</svg>
