<svg width="26" height="26" viewBox="0 0 26 26" fill="none" xmlns="http://www.w3.org/2000/svg">
<g clip-path="url(#clip0_1434_116532)">
<path d="M11.3431 20.9024C9.68886 22.6177 6.99489 22.776 5.15129 21.266C4.05333 20.3154 3.49248 18.886 3.65101 17.4424C3.78829 16.378 4.28574 15.3927 5.06064 14.6502L8.05706 11.6517C8.66713 11.0414 8.66713 10.0522 8.05706 9.44193C7.44679 8.83186 6.45754 8.83186 5.84727 9.44193L2.91444 12.3758C1.57757 13.665 0.734492 15.3817 0.53167 17.2277C0.15284 21.3856 3.21635 25.0634 7.37426 25.4422C9.60715 25.6457 11.8152 24.8475 13.4018 23.2632L16.5357 20.1304C17.1458 19.5201 17.1458 18.5308 16.5357 17.9206C15.9254 17.3105 14.9362 17.3105 14.3259 17.9206L11.3431 20.9024Z" fill="currentColor"/>
<path d="M22.5436 2.02788C19.4323 -0.257998 15.1119 0.10037 12.4198 2.86764L9.47025 5.81819C8.86018 6.42846 8.86018 7.41771 9.47025 8.02798C10.0805 8.63805 11.0698 8.63805 11.68 8.02798L14.6765 5.03469C16.2945 3.36119 18.9125 3.17267 20.7536 4.59711C22.6486 6.15102 22.9252 8.9469 21.3713 10.8419C21.2804 10.9528 21.1841 11.0593 21.0828 11.1608L17.9489 14.2948C17.3388 14.905 17.3388 15.8943 17.9489 16.5046C18.5592 17.1146 19.5484 17.1146 20.1587 16.5046L23.2926 13.3706C26.243 10.4108 26.2354 5.61962 23.2756 2.66921C23.0456 2.43997 22.8011 2.22577 22.5436 2.02788Z" fill="currentColor"/>
<path d="M9.46946 14.2976L14.3251 9.44193C14.9354 8.83161 15.9249 8.83161 16.5352 9.44193C17.1456 10.0523 17.1456 11.0417 16.5352 11.6521L11.6796 16.5077C11.0693 17.118 10.0798 17.118 9.46946 16.5077C8.85914 15.8974 8.85914 14.9079 9.46946 14.2976Z" fill="currentColor"/>
</g>
<defs>
<clipPath id="clip0_1434_116532">
<rect width="25" height="25" fill="white" transform="translate(0.5 0.5)"/>
</clipPath>
</defs>
</svg>
