<svg width="12" height="11" viewBox="0 0 12 11" fill="none" xmlns="http://www.w3.org/2000/svg">
<path d="M4.39198 8.44081L2.02908 5.38568C1.91601 5.23954 1.76268 5.15743 1.6028 5.15743C1.44293 5.15743 1.2896 5.23954 1.17653 5.38568C1.0635 5.53187 1 5.73012 1 5.93684C1 6.14355 1.0635 6.3418 1.17653 6.48799L3.53943 9.54312C3.65141 9.68796 3.78437 9.80286 3.9307 9.88126C4.07703 9.95965 4.23388 10 4.39228 10C4.55068 10 4.70752 9.95965 4.85386 9.88126C5.00019 9.80286 5.13315 9.68796 5.24513 9.54312L10.8235 2.33056C10.9365 2.18437 11 1.98611 11 1.7794C11 1.57269 10.9365 1.37444 10.8235 1.22825C10.7104 1.0821 10.5571 1 10.3972 1C10.2373 1 10.084 1.0821 9.97092 1.22825L4.39198 8.44081Z" fill="#67CE3E" stroke="#67CE3E"/>
</svg>
