<svg width="26" height="26" viewBox="0 0 26 26" fill="none" xmlns="http://www.w3.org/2000/svg">
<g clip-path="url(#clip0_1434_116523)">
<path d="M17.382 12.6948L13.9518 16.125L17.382 19.5552C17.7893 19.9625 17.7893 20.6208 17.382 21.0281C17.1789 21.2313 16.9123 21.3333 16.6456 21.3333C16.3789 21.3333 16.1123 21.2313 15.9091 21.0281L12.0477 17.1667H9.87475C9.29975 17.1667 8.83309 16.701 8.83309 16.125C8.83309 15.549 9.29975 15.0833 9.87475 15.0833H12.0477L15.9091 11.2219C16.3164 10.8146 16.9748 10.8146 17.382 11.2219C17.7893 11.6292 17.7893 12.2875 17.382 12.6948ZM4.14559 11.9583C5.58413 11.9583 6.74975 10.7927 6.74975 9.35417C6.74975 7.91562 5.58413 6.75 4.14559 6.75C2.70705 6.75 1.54142 7.91562 1.54142 9.35417C1.54142 10.7927 2.70705 11.9583 4.14559 11.9583ZM21.8539 5.70833C23.2925 5.70833 24.4581 4.54271 24.4581 3.10417C24.4581 1.66562 23.2925 0.5 21.8539 0.5C20.4154 0.5 19.2498 1.66562 19.2498 3.10417C19.2498 4.54271 20.4154 5.70833 21.8539 5.70833ZM19.2498 17.6875C19.2498 19.126 20.4154 20.2917 21.8539 20.2917C23.2925 20.2917 24.4581 19.126 24.4581 17.6875C24.4581 16.249 23.2925 15.0833 21.8539 15.0833C20.4154 15.0833 19.2498 16.249 19.2498 17.6875ZM4.14559 13C2.39559 13 0.870587 14.226 0.521629 15.9135C0.458087 16.2208 0.536212 16.5406 0.734129 16.7823C0.932045 17.025 1.22892 17.1667 1.54142 17.1667H6.74975C7.06329 17.1667 7.35913 17.025 7.55704 16.7823C7.75496 16.5406 7.83309 16.2208 7.76955 15.9135C7.42059 14.226 5.89559 13 4.14559 13ZM19.2498 10.9167H24.4581C24.7716 10.9167 25.0685 10.775 25.2654 10.5323C25.4633 10.2906 25.5414 9.97083 25.4779 9.66354C25.1279 7.97604 23.6039 6.75 21.8539 6.75C20.1039 6.75 18.5789 7.97604 18.23 9.66354C18.1664 9.97083 18.2445 10.2906 18.4425 10.5323C18.6393 10.775 18.9373 10.9167 19.2498 10.9167ZM21.8539 21.3333C20.1029 21.3333 18.5789 22.5594 18.23 24.2469C18.1664 24.5542 18.2445 24.874 18.4425 25.1156C18.6393 25.3583 18.9373 25.5 19.2498 25.5H24.4581C24.7716 25.5 25.0685 25.3583 25.2654 25.1156C25.4633 24.874 25.5414 24.5542 25.4779 24.2469C25.1279 22.5594 23.6039 21.3333 21.8539 21.3333Z" fill="#FB9DFF"/>
</g>
<defs>
<clipPath id="clip0_1434_116523">
<rect width="25" height="25" fill="white" transform="translate(0.5 0.5)"/>
</clipPath>
</defs>
</svg>
