<svg width="26" height="26" viewBox="0 0 26 26" fill="none" xmlns="http://www.w3.org/2000/svg">
<path d="M13 0.5C6.10729 0.5 0.5 6.10729 0.5 13C0.5 19.8927 6.10729 25.5 13 25.5C19.8927 25.5 25.5 19.8927 25.5 13C25.5 6.10729 19.8927 0.5 13 0.5ZM16.6812 14.574L14.3469 19.6323C14.1615 20.0344 13.7594 20.2917 13.3167 20.2917H13.0948C12.4677 20.2917 11.9594 19.7833 11.9594 19.1562V16.6927C11.9594 16.3292 11.8146 15.9802 11.5573 15.7229L10.3177 14.4833C10.0344 14.2 9.875 13.8156 9.875 13.4156V12.4125C9.875 12.1219 9.75937 11.8427 9.55312 11.6365L9.16458 11.2479C8.95208 11.0354 8.66458 10.9167 8.36458 10.9167H6.33437C5.93437 10.9167 5.55208 10.7531 5.27604 10.4625L3.54896 8.64687C5.20208 5.07396 8.81146 2.58333 13 2.58333C13.2146 2.58333 13.424 2.60312 13.6344 2.61562C13.0792 3.45729 12.576 4.23125 12.2708 4.70417C12.0781 5.00104 12.074 5.37917 12.2562 5.68333L13.1281 7.1375C13.3594 7.52187 13.2979 8.01458 12.9812 8.33229L12.9781 8.33542C12.6802 8.63333 12.226 8.70729 11.849 8.51875L10.9323 8.06042C10.6125 7.9 10.226 7.96354 9.97292 8.21562L9.42187 8.76667C9.09687 9.09167 9.09687 9.61771 9.42187 9.94167L10.0385 10.5583C10.2677 10.7875 10.5792 10.9167 10.9031 10.9167H12.3938C12.7906 10.9167 13.1792 11.0281 13.5156 11.2385L16.1844 12.9062C16.7458 13.2573 16.9594 13.9719 16.6812 14.574ZM20.8375 13.2708C20.4917 13.099 20.2385 12.7844 20.1448 12.4094L19.4917 9.79792C19.349 9.22708 19.6021 8.63021 20.1115 8.33646L21.7604 7.38542C22.8042 9.00729 23.4167 10.9323 23.4167 13C23.4167 13.5083 23.3677 14.0031 23.2969 14.4917L20.8375 13.2708Z" fill="#FB9DFF"/>
</svg>
