<svg width="26" height="26" viewBox="0 0 26 26" fill="none" xmlns="http://www.w3.org/2000/svg">
<g clip-path="url(#clip0_1434_116538)">
<path d="M21.333 25.5H4.66634C4.09134 25.5 3.62467 25.0344 3.62467 24.4583C3.62467 21.0115 6.4278 18.2083 9.87467 18.2083H16.1247C19.5716 18.2083 22.3747 21.0115 22.3747 24.4583C22.3747 25.0344 21.908 25.5 21.333 25.5ZM21.8538 6.75H21.333C21.333 4.45208 19.4643 2.58333 17.1663 2.58333H14.0413V1.54167C14.0413 0.965625 13.5747 0.5 12.9997 0.5C12.4247 0.5 11.958 0.965625 11.958 1.54167V2.58333H8.83301C6.53509 2.58333 4.66634 4.45208 4.66634 6.75H4.14551C3.28405 6.75 2.58301 7.45104 2.58301 8.3125V10.3958C2.58301 11.2573 3.28405 11.9583 4.14551 11.9583H4.66634C4.66634 14.2562 6.53509 16.125 8.83301 16.125H17.1663C19.4643 16.125 21.333 14.2562 21.333 11.9583H21.8538C22.7153 11.9583 23.4163 11.2573 23.4163 10.3958V8.3125C23.4163 7.45104 22.7153 6.75 21.8538 6.75ZM10.3955 10.9167C9.53301 10.9167 8.83301 10.2167 8.83301 9.35417C8.83301 8.49167 9.53301 7.79167 10.3955 7.79167C11.258 7.79167 11.958 8.49167 11.958 9.35417C11.958 10.2167 11.258 10.9167 10.3955 10.9167ZM15.6038 10.9167C14.7413 10.9167 14.0413 10.2167 14.0413 9.35417C14.0413 8.49167 14.7413 7.79167 15.6038 7.79167C16.4663 7.79167 17.1663 8.49167 17.1663 9.35417C17.1663 10.2167 16.4663 10.9167 15.6038 10.9167Z" fill="#FB9DFF"/>
</g>
<defs>
<clipPath id="clip0_1434_116538">
<rect width="25" height="25" fill="white" transform="translate(0.5 0.5)"/>
</clipPath>
</defs>
</svg>
