<svg width="26" height="26" viewBox="0 0 26 26" fill="none" xmlns="http://www.w3.org/2000/svg">
<g clip-path="url(#clip0_1434_116541)">
<path d="M7.75353 11.9506C7.25012 11.9506 6.76756 12.0402 6.32043 12.2049C7.92863 6.79041 12.5312 3.97527 20.2606 3.64592V6.21925C20.2606 7.08224 20.96 7.78263 21.824 7.78263C22.688 7.78263 23.3874 7.08224 23.3874 6.21925V3.1102C23.3874 2.40876 23.0987 1.72609 22.5942 1.23623C22.0866 0.742197 21.4363 0.477464 20.7161 0.501436C9.88495 0.796394 3.70541 5.60432 2.6913 14.4541C1.97527 14.919 1.5 15.7246 1.5 16.6408V22.8943C1.5 24.3316 2.66941 25.4999 4.10564 25.4999C5.54187 25.4999 6.71128 24.3316 6.71128 22.8943V20.1563C7.0448 20.2428 7.39396 20.2887 7.75353 20.2887C10.0528 20.2887 11.9226 18.4189 11.9226 16.1196C11.9226 13.8204 10.0528 11.9506 7.75353 11.9506ZM7.75353 17.683C6.89159 17.683 6.19015 16.9826 6.19015 16.1196C6.19015 15.2566 6.89159 14.5563 7.75353 14.5563C8.61548 14.5563 9.31692 15.2566 9.31692 16.1196C9.31692 16.9826 8.61548 17.683 7.75353 17.683ZM24.9424 24.3274C24.9872 24.6828 24.8465 25.0372 24.5693 25.2633C24.3806 25.4176 24.1461 25.4999 23.9085 25.4999C23.798 25.4999 23.6865 25.4822 23.5791 25.4457L21.824 24.86L20.0688 25.4457C19.728 25.5604 19.3549 25.4895 19.0776 25.2633C18.8004 25.0361 18.6597 24.6818 18.7045 24.3274L18.8035 23.5426C19.0068 21.9271 20.2043 20.7827 20.6504 20.4064C19.5842 19.311 18.1761 17.4714 18.1761 15.3848C18.1761 13.2983 19.5863 11.4545 20.6535 10.3601C21.2956 9.70143 22.3524 9.70143 22.9944 10.3601C24.0617 11.4545 25.4719 13.2972 25.4719 15.3848C25.4719 17.4725 24.0638 19.311 22.9976 20.4064C23.4437 20.7827 24.6402 21.9281 24.8444 23.5426L24.9424 24.3274Z" fill="currentColor"/>
</g>
<defs>
<clipPath id="clip0_1434_116541">
<rect width="25" height="25" fill="white" transform="translate(0.5 0.5)"/>
</clipPath>
</defs>
</svg>
