<svg width="193" height="52" viewBox="0 0 193 52" fill="none" xmlns="http://www.w3.org/2000/svg">
<path d="M34.4998 10.7892L26.7874 15.0745L17.8975 10.1345L6.59381 16.2648L6.53494 22.4547L25.4333 32.8109L18.5451 36.9771L0 26.9781L0.235493 11.6819L17.8975 0.90918L34.4998 10.7892Z" fill="#9B05FB"/>
<path d="M0.000236511 41.2108L7.71264 36.9255L16.6025 41.8655L27.9062 35.7352L27.9651 29.5453L9.06673 19.1891L15.9549 15.0229L34.5 25.0219L34.2645 40.3181L16.6025 51.0908L0.000236511 41.2108Z" fill="#6F1ED7"/>
<path d="M49.205 33.807V31.079H52.739V32.722L53.917 33.9H60.675L61.915 32.66V28.661L60.706 27.452H52.46L49.267 24.29V18.493L52.46 15.3H62.008L65.201 18.493V21.252H61.667V19.578L60.458 18.4H54.01L52.801 19.578V23.174L54.01 24.352H62.256L65.449 27.545V33.745L62.194 37H52.398L49.205 33.807ZM69.0111 14.866H72.5141V24.228L75.1801 21.562H80.0471L83.3021 24.817V37H79.7991V25.778L78.5901 24.569H75.7381L72.5141 27.824V37H69.0111V14.866ZM87.1752 21.562H90.4302V24.259L93.0962 21.562H96.9402L99.1412 23.794L101.373 21.562H106.581L109.743 24.755V37H106.24V25.778L105.031 24.569H102.148L100.35 26.367V37H96.9402V25.747L95.7622 24.569H93.6542L90.6782 27.576V37H87.1752V21.562ZM113.139 34.241V30.583L115.898 27.855H123.865V25.561L122.718 24.414H117.851L116.704 25.561V26.553H113.263V24.755L116.425 21.562H124.144L127.306 24.755V37H124.113V34.613L121.633 37H115.898L113.139 34.241ZM121.292 34.241L123.865 31.761V30.459H117.572L116.58 31.42V33.311L117.51 34.241H121.292ZM131.193 14.866H134.696V27.483H137.703L141.826 21.562H145.701L140.524 29.002L146.011 37H142.136L137.641 30.459H134.696V37H131.193V14.866ZM147.23 33.931V24.662L150.299 21.562H158.7L161.831 24.662V30.428H150.733V32.908L151.911 34.086H157.212L158.328 32.939V32.009H161.8V33.993L158.793 37H150.268L147.23 33.931ZM158.328 27.855V25.716L157.119 24.476H151.942L150.733 25.716V27.855H158.328ZM165.402 21.562H168.657V24.197L171.23 21.562H175.508V24.569H172.005L168.905 27.731V37H165.402V21.562ZM176.615 34.117V32.226H180.056V33.218L180.924 34.117H186.194L187.062 33.218V31.544L186.163 30.645H179.498L176.739 27.855V24.383L179.56 21.562H187.341L190.193 24.445V26.336H186.752V25.344L185.884 24.445H181.048L180.18 25.344V26.894L181.079 27.793H187.713L190.503 30.614V34.179L187.682 37H179.467L176.615 34.117Z" fill="white"/>
</svg>
