<svg width="36" height="48" viewBox="0 0 36 48" fill="none" xmlns="http://www.w3.org/2000/svg">
<path d="M29.0758 14.5066L24.9238 16.7886C24.7438 16.8875 24.5258 16.8875 24.3458 16.7886L18.736 13.7051C18.558 13.6072 18.3424 13.6061 18.1634 13.7021L10.8999 17.5987C10.707 17.7022 10.5857 17.9026 10.5836 18.1216L10.5495 21.6648C10.5474 21.887 10.6682 22.0921 10.8636 22.198L22.7671 28.6504C23.1758 28.872 23.1882 29.4541 22.7893 29.6928L19.1921 31.8449C19.0115 31.953 18.7874 31.9585 18.6017 31.8595L6.32328 25.311C6.1248 25.2051 6.0022 24.9971 6.0057 24.7722L6.15865 14.9455C6.16187 14.7386 6.27145 14.548 6.44862 14.4411L18.1443 7.38472C18.333 7.27091 18.5688 7.26963 18.7587 7.38139L29.0912 13.4637C29.4921 13.6997 29.4836 14.2825 29.0758 14.5066Z" fill="#9B05FB"/>
<path d="M6.92417 34.4934L11.0762 32.2114C11.2562 32.1125 11.4742 32.1125 11.6542 32.2114L17.264 35.2949C17.442 35.3928 17.6576 35.3939 17.8366 35.2978L25.1001 31.4013C25.293 31.2978 25.4143 31.0973 25.4164 30.8784L25.4505 27.3352C25.4526 27.113 25.3318 26.9078 25.1364 26.802L13.2329 20.3496C12.8242 20.128 12.8118 19.5459 13.2107 19.3072L16.8079 17.1551C16.9885 17.047 17.2126 17.0415 17.3983 17.1405L29.6767 23.689C29.8752 23.7949 29.9978 24.0029 29.9943 24.2278L29.8414 34.0545C29.8381 34.2613 29.7285 34.452 29.5514 34.5589L17.8557 41.6153C17.667 41.7291 17.4312 41.7304 17.2413 41.6186L6.90879 35.5363C6.50785 35.3003 6.51644 34.7175 6.92417 34.4934Z" fill="#6F1ED7"/>
</svg>
