<svg width="20" height="19" viewBox="0 0 20 19" fill="none" xmlns="http://www.w3.org/2000/svg">
<path d="M10 0.125C4.83047 0.125 0.625 4.33047 0.625 9.5C0.625 14.6695 4.83047 18.875 10 18.875C15.1695 18.875 19.375 14.6695 19.375 9.5C19.375 4.33047 15.1695 0.125 10 0.125ZM11.9531 12.8828C11.8305 12.9539 11.6961 12.9875 11.5633 12.9875C11.293 12.9875 11.0305 12.8477 10.8859 12.5969L9.32344 9.89062C9.25469 9.77188 9.21875 9.6375 9.21875 9.5V4.8125C9.21875 4.38125 9.56797 4.03125 10 4.03125C10.432 4.03125 10.7812 4.38125 10.7812 4.8125V9.29063L12.2391 11.8156C12.4547 12.1891 12.3266 12.6672 11.9531 12.8828Z" fill="#FB9DFF"/>
</svg>
