<svg width="20" height="20" viewBox="0 0 20 20" fill="none" xmlns="http://www.w3.org/2000/svg">
<path d="M10 0.625C4.83047 0.625 0.625 4.83047 0.625 10C0.625 15.1695 4.83047 19.375 10 19.375C15.1695 19.375 19.375 15.1695 19.375 10C19.375 4.83047 15.1695 0.625 10 0.625ZM11.9531 13.3828C11.8305 13.4539 11.6961 13.4875 11.5633 13.4875C11.293 13.4875 11.0305 13.3477 10.8859 13.0969L9.32344 10.3906C9.25469 10.2719 9.21875 10.1375 9.21875 10V5.3125C9.21875 4.88125 9.56797 4.53125 10 4.53125C10.432 4.53125 10.7812 4.88125 10.7812 5.3125V9.79063L12.2391 12.3156C12.4547 12.6891 12.3266 13.1672 11.9531 13.3828Z" fill="white"/>
</svg>
